PathFileType	4	(X/Y/Z)	 s08c0202.trc
DataRate	CameraRate	NumFrames	NumMarkers	Units	OrigDataRate	OrigDataStartFrame	OrigNumFrames
200	200	4	50	mm	200	1	2000
Frame#	Time	racr			lacr			c7			jug			rlel			rdr			llel			ldr			s2			lic			ric			lasi			rasi			rpsi			lpsi			rgt			lgt			rth1			rth2			rth3			rth4			rlfc			rmfc			rsh1			rsh2			rsh3			rsh4			rlmal			rmmal			rcal			rtoe			rmt5			lth1			lth2			lth4			lth3			llfc			lmfc			llmal			lmmal			lcal			lmt5			lsh1			lsh2			lsh3			lsh4			ltoe			SBIKE			LBIKE			RBIKE			
		X1	Y1	Z1	X2	Y2	Z2	X3	Y3	Z3	X4	Y4	Z4	X5	Y5	Z5	X6	Y6	Z6	X7	Y7	Z7	X8	Y8	Z8	X9	Y9	Z9	X10	Y10	Z10	X11	Y11	Z11	X12	Y12	Z12	X13	Y13	Z13	X14	Y14	Z14	X15	Y15	Z15	X16	Y16	Z16	X17	Y17	Z17	X18	Y18	Z18	X19	Y19	Z19	X20	Y20	Z20	X21	Y21	Z21	X22	Y22	Z22	X23	Y23	Z23	X24	Y24	Z24	X25	Y25	Z25	X26	Y26	Z26	X27	Y27	Z27	X28	Y28	Z28	X29	Y29	Z29	X30	Y30	Z30	X31	Y31	Z31	X32	Y32	Z32	X33	Y33	Z33	X34	Y34	Z34	X35	Y35	Z35	X36	Y36	Z36	X37	Y37	Z37	X38	Y38	Z38	X39	Y39	Z39	X40	Y40	Z40	X41	Y41	Z41	X42	Y42	Z42	X43	Y43	Z43	X44	Y44	Z44	X45	Y45	Z45	X46	Y46	Z46	X47	Y47	Z47	X48	Y48	Z48	X49	Y49	Z49	X50	Y50	Z50	
1	0.0050	530.509712	1395.786703	-37.357027	532.108459	1418.846938	-390.555894	522.621636	1460.620798	-213.707210	498.018565	1305.901788	-209.264790	566.944145	1138.932309	38.592385	779.388938	931.453865	-38.411817	615.290298	1169.214605	-459.329622	787.937894	932.007732	-409.827082	-14.019159	1204.190139	-227.833689	157.996411	1170.409105	-368.397653	143.074003	1199.139597	-61.553738	176.060240	1117.222054	-335.497810	162.801437	1142.289340	-92.450136	17.067849	1244.789574	-175.821948	23.132940	1240.863748	-272.671234	59.208518	1112.803251	-18.676757	76.658499	1062.823351	-405.285826	199.992241	1026.499023	-11.681309	288.226482	1015.211615	-10.849411	356.555603	961.058932	-13.163961	301.141299	1047.188073	-25.990900	457.464230	895.467727	-33.804579	445.774010	889.501803	-142.335055	369.886986	799.748876	-10.370403	337.810122	718.957969	-34.558900	269.979875	666.080957	-45.767718	361.404245	710.000516	-70.057168	194.973953	576.464544	-61.061979	216.396041	597.375932	-147.610220	111.287086	557.371887	-108.217717	406.434525	515.580605	-96.707863	312.133305	495.470778	-32.737430	119.870072	930.956797	-422.415170	168.778304	858.230265	-417.806184	194.228227	870.293051	-434.580494	173.180595	769.402090	-415.267053	208.232825	647.403001	-387.487513	201.717924	622.535207	-285.421646	135.357144	236.751542	-395.708200	162.032994	255.216962	-310.344422	71.981577	210.457345	-356.223276	277.639180	147.981170	-414.374742	181.504814	523.453476	-417.543752	188.812027	439.228596	-400.668192	156.519584	357.667837	-405.916611	208.880647	439.784734	-367.273348	358.970191	175.868198	-343.953408	-142.053629	939.107246	-221.189975	18.277219	83.985058	-426.189313	11.432613	80.347544	-27.281323	
2	0.0100	530.499762	1395.785409	-37.432520	532.094306	1418.859993	-390.606205	522.603912	1460.602446	-213.772146	498.023923	1305.871425	-209.311592	566.928309	1138.937270	38.575706	779.403689	931.454947	-38.396803	615.262955	1169.194789	-459.361637	787.943223	931.999883	-409.854748	-14.049734	1204.185898	-227.825372	157.966766	1170.405923	-368.429729	143.104400	1199.172448	-61.533310	176.028918	1117.233849	-335.524267	162.810860	1142.287848	-92.459852	17.076253	1244.789293	-175.959340	23.103982	1240.872065	-272.673899	59.215090	1112.812335	-18.686864	76.638401	1062.830438	-405.290374	200.010664	1026.564338	-11.585280	288.226726	1015.241418	-10.838235	356.573291	961.094105	-13.152255	301.135535	1047.208771	-26.000657	457.463255	895.500266	-33.767367	445.035158	892.342981	-149.351182	369.913087	799.761379	-10.337010	337.868775	718.950367	-34.544319	270.051767	666.044916	-45.769487	362.036777	709.387384	-68.057402	195.098959	576.402932	-61.058631	216.505440	597.344161	-147.620560	111.414223	557.299014	-108.199014	406.560161	515.583876	-96.676826	312.253419	495.465491	-32.744078	119.888333	930.961688	-422.403156	168.810101	858.228644	-417.800898	194.326140	870.314411	-434.546705	173.240827	769.401693	-415.238357	208.298728	647.437214	-387.491684	201.780472	622.509861	-285.455115	135.258886	236.794677	-395.721520	161.963266	255.235680	-310.330522	71.873901	210.534879	-356.226209	277.509014	147.975696	-414.345212	181.520299	523.487123	-417.545266	188.792922	439.263989	-400.646721	156.469356	357.692345	-405.895898	208.845290	439.801923	-367.253706	358.853433	175.826324	-343.950279	-142.048969	939.104415	-221.196361	18.272276	83.959121	-426.192243	11.453451	80.331817	-27.301291	
3	0.0150	530.519473	1395.776142	-37.434302	532.079330	1418.857470	-390.653685	522.613879	1460.564490	-213.838048	498.012860	1305.813008	-209.362092	566.945401	1138.934193	38.543482	779.410183	931.459477	-38.387588	615.257103	1169.159559	-459.342265	787.936548	932.011203	-409.853719	-14.072862	1204.200170	-227.823427	157.940825	1170.400737	-368.447418	143.112466	1199.164887	-61.542510	176.020519	1117.252445	-335.564984	162.803957	1142.267599	-92.485610	17.073371	1244.800203	-175.955117	23.093842	1240.884858	-272.673355	59.203323	1112.841037	-18.672510	76.617577	1062.834228	-405.308321	200.008100	1026.620647	-11.575852	288.224777	1015.291357	-10.828766	356.553163	961.130007	-13.136487	301.116599	1047.242100	-25.989546	457.487458	895.529196	-33.758843	445.037413	892.372473	-149.293523	369.959403	799.762056	-10.316091	337.920253	718.951423	-34.543069	270.120258	666.040872	-45.750469	362.100293	709.396141	-68.020668	195.211581	576.375302	-61.051051	216.612345	597.304136	-147.616690	111.522150	557.215479	-108.203727	406.690330	515.608477	-96.666471	312.391814	495.457006	-32.738731	119.907949	930.977107	-422.377021	168.853066	858.245098	-417.760526	194.326140	870.314411	-434.546705	173.294124	769.435219	-415.239217	208.378392	647.460233	-387.476521	201.803144	622.560879	-285.399900	135.169293	236.824479	-395.697440	161.889063	255.251796	-310.355766	71.766383	210.602523	-356.238523	277.374191	147.976200	-414.335851	181.541480	523.520337	-417.544367	188.766800	439.299721	-400.656453	156.410423	357.741652	-405.897151	208.820372	439.812972	-367.238389	358.732274	175.811912	-343.945510	-142.052750	939.107365	-221.212400	18.284218	83.945009	-426.199325	11.432480	80.334961	-27.300786	
4	0.0200	530.506336	1395.475136	-38.139172	530.861969	1415.613486	-383.343286	522.618882	1460.519950	-213.900928	498.048464	1305.791227	-209.360447	566.709305	1138.714200	37.382110	779.411496	931.459307	-38.345661	614.722770	1170.349869	-463.220465	787.937025	932.000170	-409.884789	-14.076654	1204.217169	-227.834914	158.119057	1172.224592	-374.453329	143.090457	1199.049801	-61.540582	176.449642	1118.781145	-340.310685	162.805666	1142.267932	-92.488765	17.080672	1244.690199	-176.010650	23.069793	1240.886515	-272.681737	59.002245	1112.794491	-18.801856	76.948892	1062.675492	-404.313795	199.998351	1026.638076	-11.552792	288.209665	1015.343430	-10.819115	356.669268	961.159227	-13.299728	302.059775	1046.879603	-24.783362	457.469848	895.468446	-34.733535	445.060506	892.422636	-149.299923	370.094156	799.863508	-10.293700	336.531936	718.697132	-40.340991	270.230185	666.004511	-45.771133	361.567626	710.072482	-71.040782	195.425018	575.840830	-60.772859	216.513765	597.177549	-147.813955	110.922806	558.380954	-107.689823	406.816274	515.536715	-96.558768	311.669438	495.900173	-33.445561	120.035997	931.051133	-422.219751	168.961272	858.256945	-417.628225	195.855696	870.143324	-428.547148	173.764335	769.451624	-414.385076	212.356302	652.041853	-395.728495	200.792991	622.956121	-287.816828	135.685034	235.900109	-394.244757	159.960648	256.727777	-312.321398	71.627948	210.708560	-356.246658	276.371570	149.958520	-417.030537	182.095570	526.616176	-422.897626	188.808771	439.411134	-400.751004	155.171411	358.711910	-407.511075	208.468223	440.925941	-369.635723	357.633792	177.828186	-346.756103	-142.059313	939.116355	-221.211561	18.274147	83.982079	-426.186142	10.844829	79.060085	-29.458455	
